<?xml version="1.0" encoding="utf-8"?>
<!-- Generator: Adobe Illustrator 23.0.5, SVG Export Plug-In . SVG Version: 6.00 Build 0)  -->
<svg version="1.1" id="Capa_1" xmlns="http://www.w3.org/2000/svg" xmlns:xlink="http://www.w3.org/1999/xlink" x="0px" y="0px"
	 viewBox="0 0 387.4 385.6" style="enable-background:new 0 0 387.4 385.6;" xml:space="preserve">
<style type="text/css">
	.st0{fill:url(#SVGID_1_);}
</style>
<linearGradient id="SVGID_1_" gradientUnits="userSpaceOnUse" x1="129.6893" y1="303.6698" x2="257.7107" y2="81.9303">
	<stop  offset="0" style="stop-color:#434262"/>
	<stop  offset="1" style="stop-color:#EA2A5B"/>
</linearGradient>
<path class="st0" d="M193.7,64.8c-70.7,0-128,57.3-128,128s57.3,128,128,128s128-57.3,128-128S264.4,64.8,193.7,64.8z M182.7,136.9
	c22.3,0,44.5,0,67,0c0,7.3,0,14.6,0,22.1c-22.3,0-44.5,0-67,0C182.7,151.6,182.7,144.4,182.7,136.9z M249.6,181.8c0,7.3,0,14.5,0,22
	c-22.3,0-44.5,0-66.9,0c0-7.2,0-14.5,0-22C205.1,181.8,227.3,181.8,249.6,181.8z M159.9,248.7c-7.3,0-14.6,0-22.2,0
	c0-37.3,0-74.5,0-111.8c7.4,0,14.7,0,22.2,0C159.9,174.2,159.9,211.3,159.9,248.7z M249.6,248.7c-22.3,0-44.5,0-67,0
	c0-7.4,0-14.7,0-22.1c22.3,0,44.6,0,67,0C249.6,233.9,249.6,241.2,249.6,248.7z"/>
</svg>
