<?xml version="1.0" encoding="utf-8"?>
<!-- Generator: Adobe Illustrator 23.0.5, SVG Export Plug-In . SVG Version: 6.00 Build 0)  -->
<svg version="1.1" id="Capa_1" xmlns="http://www.w3.org/2000/svg" xmlns:xlink="http://www.w3.org/1999/xlink" x="0px" y="0px"
	 viewBox="0 0 387.4 385.6" style="enable-background:new 0 0 387.4 385.6;" xml:space="preserve">
<style type="text/css">
	.st0{fill:#FF7262;}
	.st1{fill:#F24E1E;}
	.st2{fill:#A259FF;}
	.st3{fill:#0ACF83;}
	.st4{fill:#1ABCFE;}
</style>
<g>
	<path class="st0" d="M232.7,152.4h-39V71.6h39c22.3,0,40.4,18.1,40.4,40.4v0C273.1,134.3,255,152.4,232.7,152.4z"/>
	<path class="st1" d="M193.7,152.4h-39c-22.3,0-40.4-18.1-40.4-40.4v0c0-22.3,18.1-40.4,40.4-40.4h39V152.4z"/>
	<path class="st2" d="M193.7,233.2h-39c-22.3,0-40.4-18.1-40.4-40.4v0c0-22.3,18.1-40.4,40.4-40.4h39V233.2z"/>
	<path class="st3" d="M154,314L154,314c-21.9,0-39.7-17.8-39.7-39.7v-1.4c0-21.9,17.8-39.7,39.7-39.7h39.7v41.1
		C193.7,296.2,175.9,314,154,314z"/>
	<path class="st4" d="M233.4,233.2L233.4,233.2c-21.9,0-39.7-17.8-39.7-39.7v-1.4c0-21.9,17.8-39.7,39.7-39.7h0
		c21.9,0,39.7,17.8,39.7,39.7v1.4C273.1,215.4,255.3,233.2,233.4,233.2z"/>
</g>
</svg>
