<?xml version="1.0" encoding="utf-8"?>
<!-- Generator: Adobe Illustrator 23.0.5, SVG Export Plug-In . SVG Version: 6.00 Build 0)  -->
<svg version="1.1" id="Capa_1" xmlns="http://www.w3.org/2000/svg" xmlns:xlink="http://www.w3.org/1999/xlink" x="0px" y="0px"
	 viewBox="0 0 417 395.4" style="enable-background:new 0 0 417 395.4;" xml:space="preserve">
<g>
	<path d="M163.2,202.5c11.9,0,23.6,0,35.6,0c-6.1-23.9-12.1-47.4-18-70.6C175,155.3,169.1,178.8,163.2,202.5z"/>
	<path d="M398.6,62.6c-7.6-30.9-34-52-66.3-52.1c-82.5-0.2-165-0.2-247.5,0C46,10.7,16.5,40.7,16.5,79.6c0,78.7,0,157.5,0,236.2
		c0,34.9,23.4,62.5,57.8,68.3c4.2,0.7,8.5,0.8,12.7,0.8c81,0,162-0.2,243,0.1c40.4,0.1,66.6-29.5,69.9-59.2c0.1-0.7,0.4-1.4,0.6-2.1
		c0-84,0-168,0-252C399.9,68.7,399.3,65.6,398.6,62.6z M243.5,275c-7.3,0-14.6-0.1-21.9,0.1c-2.5,0-3.5-0.8-4.2-3.2
		c-3.7-13.7-7.5-27.4-11.3-41.1c-0.3-1-0.6-2-1-3.2c-15.8,0-31.4,0-47.1,0.1c-0.8,0-2.2,1.6-2.4,2.6c-3.7,13.6-7.4,27.2-10.8,40.8
		c-0.8,3-2,4-5.1,3.9c-7.1-0.2-14.3-0.1-22-0.1c0.4-2.1,0.6-3.6,1-5.2c13.9-48.9,28-97.7,41.8-146.6c1.3-4.5,1.7-9.4,2.2-14.1
		c0.2-2.1,0.9-2.9,3-2.9c9.7,0.1,19.4,0.2,29,0c3-0.1,3.2,1.8,3.8,3.7c10.6,35.9,21.2,71.9,31.8,107.8c5.2,17.5,10.3,35,15.5,52.5
		c0.4,1.3,0.7,2.7,1.1,4.4C245.6,274.8,244.5,275,243.5,275z M293.4,275.2c-6.7-0.2-13.4-0.1-20.1,0c-2.5,0-3.6-0.6-3.6-3.4
		c0.1-39.3,0.1-78.6,0-117.9c0-2.4,0.8-3.1,3.1-3.1c6.9,0.1,13.9,0.2,20.8,0c2.9-0.1,3.7,1,3.6,3.7c-0.1,19.6-0.1,39.2-0.1,58.8
		c0,19.4-0.1,38.7,0.1,58.1C297.3,274.3,296.4,275.3,293.4,275.2z M283.2,133.4c-9.4-0.1-15.5-6.2-15.3-15.6
		c0.1-9.6,6.6-15.9,16.1-15.7c9.1,0.2,15.4,6.7,15.3,15.9C299.1,127.4,292.8,133.5,283.2,133.4z"/>
</g>
</svg>
