<?xml version="1.0" encoding="utf-8"?>
<!-- Generator: Adobe Illustrator 23.0.5, SVG Export Plug-In . SVG Version: 6.00 Build 0)  -->
<svg version="1.1" id="Capa_1" xmlns="http://www.w3.org/2000/svg" xmlns:xlink="http://www.w3.org/1999/xlink" x="0px" y="0px"
	 viewBox="0 0 417 395.44" style="enable-background:new 0 0 417 395.44;" xml:space="preserve">
<g>
	<path d="M398.6,62.63c-7.59-30.89-34.05-52.01-66.32-52.09c-82.48-0.2-164.97-0.23-247.45,0.01c-38.87,0.11-68.3,30.18-68.32,69.06
		c-0.03,78.73-0.03,157.47,0,236.2c0.01,34.88,23.41,62.53,57.85,68.31c4.16,0.7,8.46,0.81,12.7,0.82
		c80.98,0.05,161.97-0.18,242.95,0.12c40.39,0.15,66.59-29.53,69.86-59.24c0.08-0.71,0.42-1.4,0.63-2.1c0-84,0-168,0-252
		C399.88,68.69,399.34,65.63,398.6,62.63z M174.01,220.08c-9.22,1.34-18.66,1.19-28,1.65c-2.6,0.13-5.22,0.02-8.39,0.02
		c0,1.89,0,3.37,0,4.85c0,14.75-0.07,29.49,0.05,44.24c0.03,3.23-0.98,4.4-4.3,4.33c-8.87-0.19-17.74-0.15-26.62-0.01
		c-2.9,0.04-3.95-0.89-3.95-3.86c0.06-53.61,0.05-107.22,0.04-160.83c0-1.98-0.07-3.75,2.78-3.77c20.36-0.11,40.72-0.57,61.07-0.32
		c8.89,0.11,17.54,2.59,25.63,6.42c21.35,10.09,31.27,27.44,31.46,50.64C224.05,196.82,202.27,215.96,174.01,220.08z M333.76,241.45
		c-1.32,14.77-9.28,24.96-22.45,31.25c-7.89,3.77-16.37,5.28-25.04,5.65c-14.1,0.61-27.91-0.83-41.2-5.99
		c-2.96-1.15-4.3-2.82-4.22-6.13c0.2-7.74,0.04-15.49,0.08-23.24c0.01-1.31,0.27-2.62,0.49-4.57c1.95,0.99,3.34,1.72,4.76,2.4
		c13.65,6.65,27.94,9.87,43.16,7.95c1.47-0.19,2.96-0.55,4.35-1.06c6.27-2.31,7.78-8.76,2.53-12.81c-3.88-2.98-8.63-4.87-13.08-7.07
		c-8.14-4.03-16.75-7.27-24.44-12.02c-25.88-15.98-21.34-50.94,2.63-63.7c7.65-4.07,15.81-6.08,24.39-6.48
		c12.79-0.59,25.44,0.1,37.76,4.09c2.83,0.92,3.99,2.51,3.95,5.45c-0.1,7.62,0,15.24-0.04,22.86c-0.02,3.8-1.24,4.69-4.57,3.06
		c-10.09-4.94-20.86-6.71-31.92-6.99c-3.2-0.08-6.44,0.53-9.63,1.04c-3.38,0.54-5.67,2.53-6.47,5.94c-0.8,3.41,0.83,6.16,3.48,7.67
		c5.39,3.08,11.07,5.66,16.67,8.36c6.73,3.24,13.68,6.08,20.23,9.65C328.82,214.21,335.15,225.89,333.76,241.45z"/>
	<path d="M138.08,137.56c11.83-0.19,23.59-1.72,34.9,2.57c9.82,3.72,15.27,11.01,15.96,21.52c0.74,11.35-2.97,20.67-13.97,25.34
		c-5.19,2.21-10.94,3.59-16.56,4.19c-6.63,0.71-13.4,0.17-20.33,0.17C138.08,173.33,138.08,155.66,138.08,137.56z"/>
</g>
</svg>
